<svg xmlns="http://www.w3.org/2000/svg" xmlns:xlink="http://www.w3.org/1999/xlink" viewBox="0,0,256,256" width="24px" height="24px"><g fill="#09f755" fill-rule="nonzero" stroke="none" stroke-width="1" stroke-linecap="butt" stroke-linejoin="miter" stroke-miterlimit="10" stroke-dasharray="" stroke-dashoffset="0" font-family="none" font-weight="none" font-size="none" text-anchor="none" style="mix-blend-mode: normal"><g transform="scale(10.66667,10.66667)"><path d="M13.11328,2.85742c-2.61499,0.00376 -5.18561,1.09287 -7.24414,3.29883c-1.33962,1.43642 -2.09812,3.18639 -2.30664,4.98633l-0.01953,-0.00781l-3.53516,9.86523h11.98438v-0.00586c2.10448,-0.00823 4.18868,-0.82435 5.70117,-2.44531c2.36585,-2.53628 2.30857,-6.64294 -0.13086,-9.16992c-1.07184,-1.10999 -2.46266,-1.88222 -3.97266,-2.03516c-1.51051,-0.15299 -3.13144,0.38116 -4.38477,1.71289c-1.69406,1.80019 -1.66541,4.77554 0.07813,6.56641c0.60007,0.61577 1.40553,1.05221 2.31055,1.19922c0.90502,0.14701 1.96906,-0.05228 2.75391,-0.80859c0.60014,-0.57898 0.8084,-1.40687 0.71875,-2.13672c-0.08965,-0.72985 -0.4347,-1.40709 -0.96875,-1.94531l-0.70508,-0.70899l-1.41797,1.4082l0.70313,0.70899c0.23295,0.23477 0.37545,0.54635 0.4043,0.78125c0.02885,0.2349 -0.01419,0.3481 -0.12305,0.45313c-0.28778,0.27646 -0.61169,0.34381 -1.04492,0.27344c-0.43398,-0.07049 -0.91833,-0.33486 -1.19726,-0.62109c-0.90847,-0.93313 -0.91462,-2.88502 -0.05469,-3.79883c0.87268,-0.92727 1.77858,-1.18976 2.72656,-1.09375c0.94799,0.09601 1.94832,0.6172 2.73633,1.43359c1.68457,1.74502 1.71158,4.6963 0.10742,6.41602c-2.10639,2.25745 -5.79988,2.43906 -8.2168,0.37109c-3.12071,-2.66983 -3.40801,-7.11388 -0.68359,-10.03516c1.72547,-1.84904 3.70645,-2.65912 5.7832,-2.66211c2.07676,-0.00299 4.27704,0.83467 6.30469,2.47656l0.60547,0.49023l3.1582,-2.35937l0.80273,-0.59961l-1.19727,-1.60156l-0.80078,0.59766l-2.01172,1.50195c-2.14856,-1.55257 -4.49885,-2.50926 -6.86328,-2.50586zM4.125,15.44141c0.51897,1.32236 1.35971,2.54841 2.51367,3.55859h-3.78906z"></path></g></g></svg>