<svg width="60" height="45" viewBox="0 0 60 45" fill="none" xmlns="http://www.w3.org/2000/svg">
<path d="M1.38672 9.19141C1.6862 9.21745 2.01823 9.23698 2.38281 9.25C2.69531 9.27604 3.07292 9.29557 3.51562 9.30859C3.95833 9.30859 4.45312 9.3151 5 9.32812V2.55078C5 2.26432 4.97396 2.03646 4.92188 1.86719C4.88281 1.69792 4.83724 1.56771 4.78516 1.47656C4.74609 1.3724 4.70052 1.29427 4.64844 1.24219C4.60938 1.17708 4.58984 1.11198 4.58984 1.04688C4.58984 0.96875 4.62891 0.903646 4.70703 0.851562C4.78516 0.799479 4.88932 0.753906 5.01953 0.714844C5.14974 0.675781 5.28646 0.64974 5.42969 0.636719C5.58594 0.610677 5.73568 0.597656 5.87891 0.597656C6.54297 0.597656 7.0638 0.773438 7.44141 1.125C7.83203 1.46354 8.02734 1.8737 8.02734 2.35547V9.36719C9.2513 9.36719 10.5404 9.35417 11.8945 9.32812C13.2617 9.30208 14.6289 9.25651 15.9961 9.19141C16.1784 8.99609 16.3216 8.92448 16.4258 8.97656C16.543 9.02865 16.6146 9.15234 16.6406 9.34766C16.6797 9.54297 16.6862 9.78385 16.6602 10.0703C16.6341 10.3568 16.582 10.6367 16.5039 10.9102C16.4258 11.1706 16.3151 11.3984 16.1719 11.5938C16.0417 11.7891 15.8919 11.8867 15.7227 11.8867C14.1211 11.9258 12.7018 11.9518 11.4648 11.9648C10.2409 11.9648 9.09505 11.9648 8.02734 11.9648V24.6406C8.02734 25.2917 8.15104 25.7604 8.39844 26.0469C8.64583 26.3333 8.97786 26.4766 9.39453 26.4766C9.79818 26.4766 10.1432 26.3333 10.4297 26.0469C10.7292 25.7604 10.9831 25.4023 11.1914 24.9727C11.4128 24.543 11.5885 24.0807 11.7188 23.5859C11.862 23.0781 11.9792 22.6029 12.0703 22.1602C12.1484 21.7435 12.2786 21.444 12.4609 21.2617C12.6432 21.0664 12.832 20.9688 13.0273 20.9688C13.1836 20.9688 13.3464 21.0208 13.5156 21.125C13.6849 21.2161 13.8346 21.3398 13.9648 21.4961C14.1081 21.6523 14.2188 21.8281 14.2969 22.0234C14.388 22.2188 14.4336 22.4141 14.4336 22.6094C14.4336 22.6354 14.4336 22.668 14.4336 22.707C14.4336 22.7461 14.4206 22.8047 14.3945 22.8828C14.2253 23.5469 13.9909 24.2435 13.6914 24.9727C13.4049 25.7018 13.0273 26.3724 12.5586 26.9844C12.1029 27.5964 11.556 28.1042 10.918 28.5078C10.2799 28.9115 9.53125 29.1133 8.67188 29.1133C8.13802 29.1133 7.64323 29.0286 7.1875 28.8594C6.74479 28.7031 6.36068 28.4427 6.03516 28.0781C5.70964 27.7266 5.45573 27.2708 5.27344 26.7109C5.09115 26.151 5 25.474 5 24.6797V11.9648C4.55729 11.9648 4.16016 11.9648 3.80859 11.9648C3.47005 11.9518 3.18359 11.9388 2.94922 11.9258C2.67578 11.9128 2.4349 11.8997 2.22656 11.8867C1.91406 11.8867 1.64062 11.75 1.40625 11.4766C1.15885 11.1901 0.989583 10.8776 0.898438 10.5391C0.794271 10.2005 0.78125 9.89453 0.859375 9.62109C0.924479 9.33464 1.10026 9.19141 1.38672 9.19141ZM21.4648 16.3594C21.4648 17.1016 21.3346 17.8633 21.0742 18.6445C20.8268 19.4258 20.4492 20.168 19.9414 20.8711C19.4466 21.5612 18.8281 22.1862 18.0859 22.7461C17.3568 23.293 16.5104 23.7096 15.5469 23.9961C15.6771 24.3346 15.8464 24.6602 16.0547 24.9727C16.276 25.2721 16.5365 25.5326 16.8359 25.7539C17.1354 25.9753 17.4805 26.151 17.8711 26.2812C18.2747 26.4115 18.737 26.4766 19.2578 26.4766C20.0391 26.4766 20.7096 26.3333 21.2695 26.0469C21.8294 25.7474 22.2982 25.3568 22.6758 24.875C23.0664 24.3932 23.3789 23.8529 23.6133 23.2539C23.8477 22.6549 24.0234 22.0495 24.1406 21.4375C24.2318 20.9948 24.4141 20.7018 24.6875 20.5586C24.974 20.4023 25.2604 20.3633 25.5469 20.4414C25.8464 20.5195 26.1003 20.6888 26.3086 20.9492C26.5299 21.1966 26.6211 21.4961 26.582 21.8477C26.5299 22.2513 26.4388 22.7135 26.3086 23.2344C26.1914 23.7552 26.0091 24.2826 25.7617 24.8164C25.5143 25.3503 25.1953 25.8776 24.8047 26.3984C24.4271 26.9062 23.9583 27.362 23.3984 27.7656C22.8385 28.1693 22.181 28.4948 21.4258 28.7422C20.6706 28.9896 19.8047 29.1133 18.8281 29.1133C17.9167 29.1133 17.0312 28.931 16.1719 28.5664C15.3255 28.2148 14.5703 27.707 13.9062 27.043C13.2552 26.3659 12.7279 25.5391 12.3242 24.5625C11.9336 23.5729 11.7383 22.4531 11.7383 21.2031C11.7383 19.9401 11.9141 18.7682 12.2656 17.6875C12.6172 16.5938 13.0794 15.6497 13.6523 14.8555C14.2253 14.0612 14.8763 13.4427 15.6055 13C16.3346 12.5443 17.0833 12.3164 17.8516 12.3164C18.4115 12.3164 18.9128 12.4141 19.3555 12.6094C19.8112 12.8047 20.1953 13.0846 20.5078 13.4492C20.8203 13.8008 21.0547 14.224 21.2109 14.7188C21.3802 15.2135 21.4648 15.7604 21.4648 16.3594ZM15.0195 21.0859C15.0195 21.2031 15.026 21.3203 15.0391 21.4375C15.0521 21.5547 15.0586 21.6784 15.0586 21.8086C15.5534 21.5742 16.0026 21.2747 16.4062 20.9102C16.8099 20.5456 17.1549 20.1289 17.4414 19.6602C17.7279 19.1914 17.9492 18.6836 18.1055 18.1367C18.2617 17.5768 18.3398 16.9974 18.3398 16.3984C18.3398 15.9557 18.2617 15.6107 18.1055 15.3633C17.9622 15.1159 17.7604 14.9922 17.5 14.9922C17.1745 14.9922 16.8815 15.1029 16.6211 15.3242C16.3737 15.5456 16.1523 15.8385 15.957 16.2031C15.7747 16.5547 15.6185 16.9583 15.4883 17.4141C15.3711 17.8568 15.2734 18.306 15.1953 18.7617C15.1172 19.2174 15.0651 19.6536 15.0391 20.0703C15.013 20.474 15.0065 20.8125 15.0195 21.0859ZM30.7031 22.1602C30.8203 21.7435 30.957 21.444 31.1133 21.2617C31.2695 21.0664 31.4518 20.9688 31.6602 20.9688C31.8164 20.9688 31.9727 21.0208 32.1289 21.125C32.2982 21.2161 32.4479 21.3398 32.5781 21.4961C32.7214 21.6523 32.832 21.8281 32.9102 22.0234C33.0013 22.2188 33.0469 22.4141 33.0469 22.6094C33.0469 22.6354 33.0469 22.6875 33.0469 22.7656C33.0469 22.8438 33.0339 22.9219 33.0078 23C32.6693 24.1589 32.2721 25.1875 31.8164 26.0859C31.3737 26.9714 30.8984 27.7656 30.3906 28.4688C29.8828 29.1719 29.3555 29.7969 28.8086 30.3438C28.2617 30.9036 27.7148 31.418 27.168 31.8867V38.8008C27.168 39.8555 27.0443 40.7409 26.7969 41.457C26.5625 42.1862 26.25 42.7721 25.8594 43.2148C25.4688 43.6706 25.0195 43.9961 24.5117 44.1914C24.0169 44.3867 23.5156 44.4844 23.0078 44.4844C22.4479 44.4844 21.9336 44.3607 21.4648 44.1133C20.9961 43.8789 20.5924 43.5534 20.2539 43.1367C19.9154 42.7201 19.6549 42.2318 19.4727 41.6719C19.2773 41.112 19.1797 40.513 19.1797 39.875C19.1797 38.8594 19.3164 37.9609 19.5898 37.1797C19.8503 36.3984 20.2083 35.6823 20.6641 35.0312C21.1198 34.3802 21.6471 33.7682 22.2461 33.1953C22.8451 32.6354 23.4766 32.0625 24.1406 31.4766V14.6797C24.1406 14.3021 24.1081 14.0286 24.043 13.8594C23.9909 13.6901 23.9648 13.5339 23.9648 13.3906C23.9648 13.1953 24.069 13.0391 24.2773 12.9219C24.4857 12.7917 24.7331 12.7266 25.0195 12.7266C25.6836 12.7266 26.2044 12.9023 26.582 13.2539C26.9727 13.5924 27.168 14.0026 27.168 14.4844V28.5273C27.8971 27.7201 28.5677 26.8021 29.1797 25.7734C29.7917 24.7448 30.2995 23.5404 30.7031 22.1602ZM23.2227 6.32031C23.2227 5.96875 23.2812 5.64323 23.3984 5.34375C23.5286 5.04427 23.7044 4.79036 23.9258 4.58203C24.1471 4.36068 24.4076 4.19141 24.707 4.07422C25.0065 3.94401 25.3255 3.87891 25.6641 3.87891C25.9896 3.87891 26.2956 3.94401 26.582 4.07422C26.8815 4.19141 27.1419 4.36068 27.3633 4.58203C27.5846 4.79036 27.7604 5.04427 27.8906 5.34375C28.0208 5.64323 28.0859 5.96875 28.0859 6.32031C28.0859 6.65885 28.0208 6.97786 27.8906 7.27734C27.7604 7.5638 27.5846 7.81771 27.3633 8.03906C27.1419 8.26042 26.8815 8.4362 26.582 8.56641C26.2956 8.69661 25.9896 8.76172 25.6641 8.76172C25.3255 8.76172 25.0065 8.69661 24.707 8.56641C24.4076 8.4362 24.1471 8.26042 23.9258 8.03906C23.7044 7.81771 23.5286 7.5638 23.3984 7.27734C23.2812 6.97786 23.2227 6.65885 23.2227 6.32031ZM23.0078 41.9648C23.3333 41.9648 23.5742 41.8346 23.7305 41.5742C23.8867 41.3138 23.9909 41.0078 24.043 40.6562C24.1081 40.3177 24.1406 39.9727 24.1406 39.6211C24.1406 39.2695 24.1406 38.9961 24.1406 38.8008V34.5234C23.4896 35.1745 22.9688 35.9102 22.5781 36.7305C22.1745 37.5508 21.9727 38.5599 21.9727 39.7578C21.9727 40.3828 22.0703 40.9036 22.2656 41.3203C22.4479 41.75 22.6953 41.9648 23.0078 41.9648ZM42.168 26.4766C42.5716 26.4766 42.9167 26.3333 43.2031 26.0469C43.5026 25.7604 43.7565 25.4023 43.9648 24.9727C44.1862 24.543 44.362 24.0807 44.4922 23.5859C44.6354 23.0781 44.7526 22.6029 44.8438 22.1602C44.9349 21.7435 45.0651 21.444 45.2344 21.2617C45.4167 21.0664 45.612 20.9688 45.8203 20.9688C45.9766 20.9688 46.1328 21.0208 46.2891 21.125C46.4583 21.2161 46.6081 21.3398 46.7383 21.4961C46.8815 21.6523 46.9922 21.8281 47.0703 22.0234C47.1615 22.2188 47.207 22.4141 47.207 22.6094C47.207 22.6354 47.207 22.668 47.207 22.707C47.207 22.7461 47.194 22.8047 47.168 22.8828C46.9987 23.5469 46.7643 24.2435 46.4648 24.9727C46.1784 25.7018 45.8073 26.3724 45.3516 26.9844C44.8958 27.5964 44.3424 28.1042 43.6914 28.5078C43.0534 28.9115 42.3047 29.1133 41.4453 29.1133C40.7422 29.1133 40.1302 28.9635 39.6094 28.6641C39.0885 28.3646 38.6784 27.9674 38.3789 27.4727C37.9753 27.9284 37.487 28.3125 36.9141 28.625C36.3542 28.9505 35.6966 29.1133 34.9414 29.1133C34.1602 29.1133 33.4701 28.957 32.8711 28.6445C32.2852 28.332 31.7904 27.9089 31.3867 27.375C30.9831 26.8281 30.6771 26.1901 30.4688 25.4609C30.2734 24.7188 30.1758 23.9245 30.1758 23.0781C30.1758 21.4115 30.4427 19.9141 30.9766 18.5859C31.5104 17.2578 32.2201 16.1315 33.1055 15.207C33.9909 14.2695 35 13.5534 36.1328 13.0586C37.2786 12.5638 38.4635 12.3164 39.6875 12.3164C40.2344 12.3164 40.6771 12.4661 41.0156 12.7656C41.3542 13.0651 41.5234 13.4753 41.5234 13.9961C41.5234 14.3346 41.4844 14.5755 41.4062 14.7188C41.3411 14.849 41.2109 14.9141 41.0156 14.9141C40.8333 14.9141 40.6445 14.901 40.4492 14.875C40.2539 14.849 40.0521 14.8359 39.8438 14.8359C39.0885 14.8359 38.3203 15.0052 37.5391 15.3438C36.7578 15.6693 36.0482 16.1771 35.4102 16.8672C34.7852 17.5443 34.2708 18.4102 33.8672 19.4648C33.4635 20.5065 33.2617 21.75 33.2617 23.1953C33.2617 24.25 33.4635 25.0638 33.8672 25.6367C34.2708 26.1966 34.8242 26.4766 35.5273 26.4766C36.0742 26.4766 36.5299 26.2747 36.8945 25.8711C37.2591 25.4544 37.5521 24.9661 37.7734 24.4062V18.2344C37.7734 18.0391 37.7604 17.8763 37.7344 17.7461C37.7214 17.6159 37.7018 17.5052 37.6758 17.4141C37.6628 17.3229 37.6497 17.2448 37.6367 17.1797C37.6237 17.1016 37.6172 17.0299 37.6172 16.9648C37.6172 16.7565 37.7148 16.5938 37.9102 16.4766C38.1185 16.3464 38.3659 16.2812 38.6523 16.2812C39.3164 16.2812 39.8438 16.457 40.2344 16.8086C40.625 17.1471 40.8203 17.5573 40.8203 18.0391V24.6406C40.8203 24.862 40.8464 25.0833 40.8984 25.3047C40.9505 25.513 41.0286 25.7083 41.1328 25.8906C41.237 26.0599 41.3737 26.2031 41.543 26.3203C41.7253 26.4245 41.9336 26.4766 42.168 26.4766ZM47.3047 22.5117C47.2005 22.9284 47.0052 23.1888 46.7188 23.293C46.4323 23.3841 46.1458 23.3711 45.8594 23.2539C45.5859 23.1367 45.3516 22.9349 45.1562 22.6484C44.974 22.362 44.9219 22.0495 45 21.7109C45.1953 20.8255 45.4753 19.849 45.8398 18.7812C46.2174 17.7005 46.5885 16.6263 46.9531 15.5586C46.7578 15.2591 46.6016 14.9596 46.4844 14.6602C46.3672 14.3477 46.3086 14.0221 46.3086 13.6836C46.3086 13.3451 46.4323 12.9935 46.6797 12.6289C46.9401 12.2513 47.2461 11.9062 47.5977 11.5938C47.9622 11.2812 48.3333 11.0273 48.7109 10.832C49.1016 10.6237 49.4336 10.5195 49.707 10.5195C50.1888 10.5195 50.5469 10.6823 50.7812 11.0078C51.0286 11.3333 51.1523 11.7695 51.1523 12.3164C51.1523 12.6159 51.1003 12.9154 50.9961 13.2148C50.9049 13.5013 50.8008 13.7747 50.6836 14.0352C50.5664 14.2826 50.4557 14.4974 50.3516 14.6797C50.2604 14.862 50.2083 14.9792 50.1953 15.0312C50.6641 15.8646 51.1523 16.6003 51.6602 17.2383C52.168 17.8763 52.6302 18.5078 53.0469 19.1328C53.4766 19.7578 53.8281 20.4219 54.1016 21.125C54.375 21.8281 54.5117 22.6549 54.5117 23.6055C54.5117 23.8398 54.4922 24.0807 54.4531 24.3281C54.4271 24.5755 54.3815 24.8099 54.3164 25.0312C54.7852 24.9401 55.1953 24.7969 55.5469 24.6016C55.9115 24.4062 56.224 24.1849 56.4844 23.9375C56.7578 23.6771 56.9792 23.3971 57.1484 23.0977C57.3307 22.7982 57.4805 22.4857 57.5977 22.1602C57.7409 21.7826 57.8841 21.5091 58.0273 21.3398C58.1706 21.1706 58.3333 21.0859 58.5156 21.0859C58.6849 21.0859 58.8542 21.1445 59.0234 21.2617C59.2057 21.3659 59.362 21.5026 59.4922 21.6719C59.6354 21.8411 59.7461 22.0169 59.8242 22.1992C59.9154 22.3815 59.9609 22.5443 59.9609 22.6875C59.9609 22.8828 59.9089 23.1172 59.8047 23.3906C59.7005 23.6641 59.5573 23.944 59.375 24.2305C59.2057 24.5169 59.0104 24.7969 58.7891 25.0703C58.5677 25.3307 58.3398 25.5586 58.1055 25.7539C57.4805 26.2617 56.7448 26.6914 55.8984 27.043C55.0521 27.3815 54.0039 27.5964 52.7539 27.6875C52.2721 28.1042 51.6992 28.4427 51.0352 28.7031C50.3841 28.9766 49.6484 29.1133 48.8281 29.1133C48.4115 29.1133 47.9818 29.0612 47.5391 28.957C47.1094 28.8529 46.6927 28.7161 46.2891 28.5469C45.8984 28.3906 45.5404 28.2148 45.2148 28.0195C44.8893 27.8242 44.6289 27.6289 44.4336 27.4336C43.9388 26.9648 43.6198 26.4961 43.4766 26.0273C43.3333 25.5456 43.3008 25.1159 43.3789 24.7383C43.444 24.3607 43.5807 24.0547 43.7891 23.8203C43.9974 23.5729 44.2122 23.4492 44.4336 23.4492C44.5638 23.4492 44.7656 23.5078 45.0391 23.625C45.3255 23.7292 45.651 23.8724 46.0156 24.0547C46.3802 24.224 46.7773 24.4062 47.207 24.6016C47.6367 24.7969 48.0664 24.9857 48.4961 25.168C48.9258 25.3372 49.3424 25.4805 49.7461 25.5977C50.1628 25.7018 50.5404 25.7539 50.8789 25.7539C51.1003 25.4935 51.3021 25.1484 51.4844 24.7188C51.6667 24.2891 51.7578 23.8203 51.7578 23.3125C51.7578 22.6875 51.6732 22.1081 51.5039 21.5742C51.3346 21.0404 51.1133 20.5456 50.8398 20.0898C50.5664 19.6341 50.2539 19.2109 49.9023 18.8203C49.5638 18.4167 49.2188 18.0391 48.8672 17.6875C48.5547 18.4557 48.2812 19.2174 48.0469 19.9727C47.8125 20.7148 47.5651 21.5612 47.3047 22.5117Z" fill="#09F755"/>
</svg>
