<svg width="466" height="248" viewBox="0 0 467 198" fill="none" xmlns="http://www.w3.org/2000/svg">
<path fill-rule="evenodd" clip-rule="evenodd" d="M466 0H0V248H466V0ZM117.911 143.19V113.71H131.551V101.06H117.911V85.99H102.401V101.06H95.1406V113.71H102.401V143.08C102.401 155.693 108.891 162 121.871 162H131.551V149.02H124.401C122.054 149.02 120.367 148.58 119.341 147.7C118.387 146.747 117.911 145.243 117.911 143.19ZM194.437 136.15C194.73 134.39 194.877 132.41 194.877 130.21C194.877 124.27 193.594 119.027 191.027 114.48C188.534 109.86 184.977 106.303 180.357 103.81C175.81 101.317 170.64 100.07 164.847 100.07C158.834 100.07 153.517 101.353 148.897 103.92C144.277 106.487 140.684 110.153 138.117 114.92C135.55 119.687 134.267 125.223 134.267 131.53C134.267 137.763 135.55 143.263 138.117 148.03C140.757 152.797 144.387 156.5 149.007 159.14C153.7 161.707 158.98 162.99 164.847 162.99C172.107 162.99 178.23 161.12 183.217 157.38C188.204 153.567 191.577 148.727 193.337 142.86H176.727C174.307 147.773 170.237 150.23 164.517 150.23C160.557 150.23 157.22 148.983 154.507 146.49C151.794 143.997 150.254 140.55 149.887 136.15H194.437ZM174.637 116.35C177.424 118.697 178.854 121.85 178.927 125.81H149.997C150.584 121.703 152.16 118.513 154.727 116.24C157.367 113.893 160.594 112.72 164.407 112.72C168.44 112.72 171.85 113.93 174.637 116.35ZM202.598 91.27C204.431 92.9567 206.741 93.8 209.528 93.8C212.241 93.8 214.478 92.9567 216.238 91.27C217.998 89.51 218.878 87.3467 218.878 84.78C218.878 82.2133 217.998 80.0867 216.238 78.4C214.478 76.64 212.241 75.76 209.528 75.76C206.741 75.76 204.431 76.64 202.598 78.4C200.838 80.0867 199.958 82.2133 199.958 84.78C199.958 87.3467 200.838 89.51 202.598 91.27ZM212.058 186.53C215.431 183.597 217.118 178.757 217.118 172.01V101.06H201.718V172.12C201.718 174.173 201.241 175.64 200.288 176.52C199.334 177.473 197.684 177.95 195.338 177.95H190.938V191.04H197.758C203.991 191.04 208.758 189.537 212.058 186.53ZM227.603 114.92C225.183 119.687 223.973 125.15 223.973 131.31C223.973 137.543 225.183 143.08 227.603 147.92C230.096 152.687 233.433 156.39 237.613 159.03C241.866 161.67 246.56 162.99 251.693 162.99C256.24 162.99 260.236 162.073 263.683 160.24C267.203 158.333 269.953 155.95 271.933 153.09V162H287.443V101.06H271.933V109.75C269.88 106.963 267.13 104.653 263.683 102.82C260.31 100.987 256.35 100.07 251.803 100.07C246.596 100.07 241.866 101.353 237.613 103.92C233.433 106.487 230.096 110.153 227.603 114.92ZM269.733 121.96C271.2 124.6 271.933 127.79 271.933 131.53C271.933 135.27 271.2 138.497 269.733 141.21C268.266 143.85 266.286 145.903 263.793 147.37C261.3 148.763 258.623 149.46 255.763 149.46C252.976 149.46 250.336 148.727 247.843 147.26C245.423 145.793 243.443 143.703 241.903 140.99C240.436 138.203 239.703 134.977 239.703 131.31C239.703 127.643 240.436 124.49 241.903 121.85C243.443 119.137 245.423 117.083 247.843 115.69C250.263 114.297 252.903 113.6 255.763 113.6C258.623 113.6 261.3 114.333 263.793 115.8C266.286 117.193 268.266 119.247 269.733 121.96ZM307.984 160.35C311.944 162.11 316.417 162.99 321.404 162.99C326.244 162.99 330.46 162.22 334.054 160.68C337.72 159.067 340.507 156.867 342.414 154.08C344.394 151.293 345.384 148.14 345.384 144.62C345.31 140.587 344.21 137.36 342.084 134.94C340.03 132.447 337.574 130.613 334.714 129.44C331.854 128.267 328.224 127.13 323.824 126.03C319.497 124.93 316.307 123.867 314.254 122.84C312.2 121.74 311.174 120.163 311.174 118.11C311.174 116.277 311.907 114.847 313.374 113.82C314.914 112.793 317.077 112.28 319.864 112.28C322.87 112.28 325.254 113.013 327.014 114.48C328.847 115.873 329.874 117.78 330.094 120.2H344.834C344.394 114.04 342.01 109.163 337.684 105.57C333.357 101.903 327.564 100.07 320.304 100.07C315.39 100.07 311.1 100.877 307.434 102.49C303.84 104.103 301.054 106.303 299.074 109.09C297.167 111.877 296.214 114.957 296.214 118.33C296.214 122.437 297.24 125.7 299.294 128.12C301.42 130.54 303.914 132.337 306.774 133.51C309.707 134.683 313.447 135.82 317.994 136.92C322.394 138.093 325.584 139.193 327.564 140.22C329.617 141.173 330.644 142.64 330.644 144.62C330.644 146.453 329.8 147.957 328.114 149.13C326.5 150.303 324.227 150.89 321.294 150.89C318.287 150.89 315.757 150.12 313.704 148.58C311.724 147.04 310.587 145.097 310.294 142.75H294.784C295.004 146.49 296.25 149.9 298.524 152.98C300.87 156.06 304.024 158.517 307.984 160.35ZM353.515 160.24C355.348 161.927 357.658 162.77 360.445 162.77C363.158 162.77 365.395 161.927 367.155 160.24C368.915 158.48 369.795 156.317 369.795 153.75C369.795 151.183 368.915 149.057 367.155 147.37C365.395 145.61 363.158 144.73 360.445 144.73C357.658 144.73 355.348 145.61 353.515 147.37C351.755 149.057 350.875 151.183 350.875 153.75C350.875 156.317 351.755 158.48 353.515 160.24Z" fill="black"/>
</svg>
